<svg width="40" height="40" viewBox="0 0 40 40" fill="none" xmlns="http://www.w3.org/2000/svg">
<path d="M40 0H0V40H40V0Z" fill="white"/>
<mask id="mask0_230_11881" style="mask-type:alpha" maskUnits="userSpaceOnUse" x="7" y="1" width="26" height="38">
<path d="M33 2.69208V25.6399C33 27.34 32.3097 29.1035 30.9488 30.8796C29.8844 32.269 28.4071 33.6748 26.5529 35.0566C23.4182 37.3968 20.0007 39 20.0007 39C20.0007 39 16.5827 37.3968 13.4484 35.0566C11.5956 33.6748 10.1169 32.269 9.05255 30.8796C7.69028 29.1035 7 27.34 7 25.6399V2.6996L17 1C17.1992 1.37507 17.6482 1.78264 18 2C18.3518 2.21736 19 2.69969 20 2.69956C21 2.69944 21.6474 2.21869 22 2C22.3526 1.78131 22.8014 1.37704 23 1L33 2.69208Z" fill="#C4C4C4"/>
</mask>
<g mask="url(#mask0_230_11881)">
<rect x="6" y="-1" width="29" height="40" fill="#111111"/>
<path fill-rule="evenodd" clip-rule="evenodd" d="M25.6829 21.1372C26.472 21.6239 28.3393 23.1694 29.0064 23.9059C29.1693 24.086 29.0485 24.2239 28.9157 24.1767C28.6036 24.0745 28.1716 23.9068 27.65 23.7043C27.0106 23.4561 26.2364 23.1556 25.3833 22.8594C25.9503 23.2324 28.0211 24.8636 28.8918 25.6618C29.0997 25.8524 28.9303 26.0449 28.7801 25.9907C28.5372 25.9031 28.2269 25.7743 27.8585 25.6215C26.1186 24.8994 23.0828 23.6396 19.7296 23.6396C16.4016 23.6396 13.4656 24.862 11.7055 25.5948C11.3264 25.7526 11.0019 25.8877 10.7397 25.983C10.5579 26.0491 10.3958 25.8651 10.6642 25.6142C11.4065 24.9204 13.3594 23.2632 13.9398 22.8598C13.0245 23.1768 12.2588 23.4976 11.6438 23.7553C11.2184 23.9334 10.8652 24.0814 10.5844 24.1771C10.4625 24.2186 10.3054 24.0879 10.5035 23.8928C10.5309 23.8659 10.5602 23.8369 10.5914 23.8062C11.2738 23.1337 12.8415 21.5888 13.6873 21.0047C13.3218 20.6749 12.9811 20.3152 12.6686 19.929C10.009 16.6775 10.2398 12.6892 10.4524 12.0338C10.4582 12.0152 10.4692 11.999 10.484 11.9871C10.4987 11.9753 10.5165 11.9685 10.5349 11.9675C10.5534 11.9666 10.5717 11.9715 10.5875 11.9818C10.6032 11.992 10.6157 12.0071 10.6232 12.025C10.6243 12.0279 10.6271 12.0384 10.6318 12.0559C10.7404 12.464 11.8646 16.6866 16.1648 18.0317C19.5678 19.0966 22.1508 17.5884 23.3843 16.5853C23.4369 16.0844 23.5994 15.0802 24.1048 14.1398C24.1112 14.1258 24.1209 14.1138 24.133 14.105C24.1451 14.0962 24.1591 14.0908 24.1738 14.0895C24.1884 14.0881 24.2031 14.0908 24.2164 14.0973C24.2298 14.1037 24.2413 14.1137 24.2499 14.1263L24.6127 14.6342C24.6127 14.6342 24.6388 14.0944 24.7821 13.6719C24.7861 13.6576 24.7935 13.6447 24.8035 13.6343C24.8135 13.624 24.8259 13.6165 24.8395 13.6127C24.853 13.6088 24.8672 13.6087 24.8808 13.6123C24.8944 13.616 24.9069 13.6232 24.9171 13.6334C25.0859 13.8162 25.2405 14.0132 25.3793 14.2224C26.0686 12.9919 26.8856 10.8986 26.4676 7.88833C26.4419 7.6974 26.644 7.5787 26.7579 7.74773C27.6663 9.09383 28.3037 11.3389 27.9754 13.8808C27.9754 13.8808 28.5297 12.431 28.5178 10.1603C28.517 10.0162 28.6872 9.9801 28.7304 10.1003C30.7435 15.7171 27.1961 19.7831 25.6829 21.1372ZM26.0551 16.0878C26.0551 16.3399 25.8622 16.5442 25.6242 16.5442C25.3861 16.5442 25.1932 16.3399 25.1932 16.0878C25.1932 15.8358 25.3861 15.6314 25.6242 15.6314C25.8622 15.6314 26.0551 15.8358 26.0551 16.0878Z" fill="white"/>
</g>
<path d="M8.61901 30.8282L8.61873 30.8279L8.59713 30.8011C8.59695 30.8008 8.59677 30.8006 8.5966 30.8004C7.21432 29.0738 6.66666 27.5516 6.66666 26.2563V2.54331L16.704 1.07134C17.5247 1.83414 18.6251 2.30259 19.8333 2.30259C21.0458 2.30259 22.1493 1.83111 22.9708 1.06452L33 2.53522V26.2563C33 27.5584 32.4465 29.09 31.0479 30.8279L31.0337 30.8455C29.9407 32.2012 28.3725 33.6336 26.3272 35.0871L26.3267 35.0874L26.2906 35.1131C24.5726 36.3317 22.7637 37.3698 21.3686 38.1092C20.7569 38.4333 20.2304 38.6971 19.8332 38.8907C19.4364 38.6974 18.9099 38.4331 18.2985 38.1092C16.8937 37.3645 15.0691 36.3168 13.3398 35.0875C11.2865 33.6274 9.71372 32.1893 8.61901 30.8282Z" stroke="#111111"/>
</svg>
